<?xml version="1.0" encoding="UTF-8"?>
<svg width="55px" height="41px" viewBox="0 0 55 41" version="1.1" xmlns="http://www.w3.org/2000/svg" xmlns:xlink="http://www.w3.org/1999/xlink">
    <title>cloud download-fill</title>
    <g id="首页" stroke="none" stroke-width="1" fill="none" fill-rule="evenodd">
        <g transform="translate(-363.000000, -205.000000)" fill="#FFFFFF" fill-rule="nonzero" id="项目列表">
            <g transform="translate(250.000000, 161.000000)">
                <g id="cloud-download-fill" transform="translate(113.000000, 44.000000)">
                    <path d="M55,27.3152039 C55,34.9264628 49.4071875,40.9574468 42.3053125,40.9574468 L14.8053125,40.9574468 C6.655,40.9574468 0,33.7898936 0,25.0386525 C0,17.2772163 5.0840625,10.8537234 12.161875,9.33147163 C15.2625,3.59742908 21.044375,0 27.5,0 C35.68125,0 42.6525,5.78182624 44.8696875,13.9255319 C50.5896875,15.2225177 55,20.8541667 55,27.3152039 Z M18.3321875,23.58125 L27.5,33.516844 L36.6678125,23.5846631 L18.3321875,23.5846631 L18.3321875,23.58125 Z M29.7928125,23.58125 L29.7928125,9.92876773 L25.2071875,9.92876773 L25.2071875,23.58125 L29.7928125,23.58125 Z" id="形状"></path>
                </g>
            </g>
        </g>
    </g>
</svg>