<?xml version="1.0" encoding="UTF-8"?>
<svg width="500px" height="500px" viewBox="0 0 500 500" version="1.1" xmlns="http://www.w3.org/2000/svg" xmlns:xlink="http://www.w3.org/1999/xlink">
    <title>画板</title>
    <g id="画板" stroke="none" stroke-width="1" fill="none" fill-rule="evenodd">
        <g id="编组" transform="translate(250.500000, 250.500000) rotate(-13.000000) translate(-250.500000, -250.500000) translate(167.000000, 38.000000)" fill="#006440">
            <path d="M104.310349,88.3201215 L127.850006,59.692976 L82.8700007,0.756206805 L39.6356765,79.3777916 C63.3227859,97.8834196 80.5039876,125.998859 91.2586999,163.648222 C101.253553,202.023678 98.7770619,239.615251 85.1307281,275.179276 C88.7866198,254.64864 84.4991606,233.17629 71.7439441,211.263329 C58.4415854,189.873197 57.8128116,164.095261 70.8441129,132.986867 C41.8288489,185.214587 32.9407805,224.741899 41.6536233,253.982826 C49.9202312,283.650157 66.1622198,307.815963 90.0716366,326.774511 C112.297451,282.604134 123.771836,239.085732 122.790254,197.848097 C121.61039,156.799933 104.68056,115.546142 70.1869474,75.8199372 L82.8922009,52.437338 L104.310349,88.3201215 Z" id="路径-3"></path>
            <path d="M32.121083,92.5768653 L51.9375718,113.326682 C33.8148143,145.373139 26.4188831,183.004386 28.9245825,227.008948 C31.4302818,271.01351 53.2847182,313.020466 92.0695424,355.340698 C119.723498,304.964789 135.656902,259.631042 137.592963,221.515075 C139.529024,183.399108 131.046206,143.171845 110.938394,101.985805 L135.690074,73.1166916 C173.129108,149.334559 175.347801,221.947804 148.592778,284.987388 C124.491319,345.491327 94.028992,392.272136 57.9308643,424.63697 L80.5953506,376.812149 C33.2426272,317.113419 5.45626283,266.466664 1.46494074,220.831113 C-2.52638135,175.195562 7.21117663,132.90392 32.121083,92.5768653 Z" id="路径-4"></path>
        </g>
    </g>
</svg>