<?xml version="1.0" encoding="UTF-8"?>
<svg width="35px" height="50px" viewBox="0 0 35 50" version="1.1" xmlns="http://www.w3.org/2000/svg" xmlns:xlink="http://www.w3.org/1999/xlink">
    <title>mobile</title>
    <g id="首页" stroke="none" stroke-width="1" fill="none" fill-rule="evenodd">
        <g transform="translate(-1272.000000, -201.000000)" fill="#FFFFFF" fill-rule="nonzero" id="项目列表">
            <g transform="translate(250.000000, 161.000000)">
                <g id="编组-5备份-5" transform="translate(900.000000, 0.000000)">
                    <g id="mobile" transform="translate(122.000000, 40.000000)">
                        <path d="M27.9910536,8.78950324e-07 L6.9916928,8.78950324e-07 L6.99169281,8.78950324e-07 C3.13218396,0.00194460565 0.00497336713,3.19674885 0.00687707199,7.13577837 C0.00687707199,7.13813285 0.00687707199,7.14048733 0.00687707199,7.14284179 L0.00687707199,35.7142452 L35,35.7142452 L35,7.14284179 L35,7.14291327 C34.9962229,3.19550371 31.8587802,-0.0019353975 27.9910605,8.78950324e-07 L27.9910536,8.78950324e-07 Z M20.9924347,5.35802183 L20.9924347,5.35799081 C20.9905405,6.34567473 20.2045029,7.14478073 19.2367622,7.14285658 C19.23676,7.14285658 19.2367578,7.14285658 19.2367555,7.14285658 L15.742597,7.14285658 L15.742597,7.14285658 C14.7748563,7.1426815 13.9904838,6.34186806 13.9906531,5.35418415 C13.9908212,4.36674321 14.7750944,3.56630893 15.742597,3.56613615 L19.2401838,3.56613615 L19.2401839,3.56613615 C20.2076918,3.5700143 20.9905407,4.37056606 20.9924347,5.3580232 L20.9924347,5.35802183 Z M0,39.2839581 L0,42.8571492 C0,46.8042401 3.12432758,50 6.9916928,50 L27.9841231,50 L27.9841228,50 C31.8493559,50 34.9827458,46.8020371 34.9827458,42.8571492 L34.9827458,39.2839581 L0,39.2839581 L0,39.2839581 Z M17.4948385,47.3156768 C16.0432724,47.3156768 14.8681924,46.1163803 14.8681924,44.6490092 L14.8681924,44.6490096 C14.8681924,43.1704076 16.0426323,41.9717594 17.4913838,41.9717594 C18.94013,41.9717594 20.1145752,43.1704022 20.1145752,44.6490096 C20.1145752,44.6490096 20.1145752,44.6490096 20.1145752,44.6490096 C20.1145752,46.1163807 18.9394952,47.3156768 17.4948438,47.3156768 L17.4948385,47.3156768 Z" id="形状"></path>
                    </g>
                </g>
            </g>
        </g>
    </g>
</svg>