<?xml version="1.0" encoding="UTF-8"?>
<svg width="50px" height="44px" viewBox="0 0 50 44" version="1.1" xmlns="http://www.w3.org/2000/svg" xmlns:xlink="http://www.w3.org/1999/xlink">
    <title>pc</title>
    <g id="首页" stroke="none" stroke-width="1" fill="none" fill-rule="evenodd">
        <g transform="translate(-665.000000, -203.000000)" fill="#FFFFFF" fill-rule="nonzero" id="项目列表">
            <g transform="translate(250.000000, 161.000000)">
                <g id="编组-5备份" transform="translate(300.000000, 0.000000)">
                    <g id="pc" transform="translate(115.000000, 42.000000)">
                        <path d="M47.1537861,0.00291662091 L3.6947665,0.00291662091 L3.69476633,0.00291661403 C1.80705533,-0.0731254808 0.187415683,1.34647201 3.55271368e-15,3.24133428 L3.55271368e-15,30.2281482 L49.9775156,30.2281482 L49.9775156,3.24133428 L49.9775157,3.24133347 C50.1494043,1.63501084 48.996852,0.192380106 47.4032162,0.019124761 C47.3203417,0.0101147634 47.2371202,0.00470773034 47.1537833,0.00291867324 L47.1537861,0.00291662091 Z M1.06318801e-07,33.4665658 L1.06318801e-07,33.4665652 C0.187414674,35.3614275 1.80705543,36.7810238 3.69476644,36.7049828 L23.9178111,36.7049828 L23.9178111,41.0228731 L13.4725104,41.0228731 L13.4725104,41.0228731 C12.881041,41.022873 12.4015637,41.5061692 12.4015637,42.1023456 C12.4015636,42.6985237 12.8810427,43.1818182 13.4725104,43.1818182 C13.4725105,43.1818182 13.4725105,43.1818182 13.4725105,43.1818182 L37.3903215,43.1818182 L37.3903215,43.1818182 C37.9817909,43.1818182 38.4612683,42.698522 38.4612683,42.1023456 C38.4612683,41.5061676 37.9817892,41.0228731 37.3903215,41.0228731 C37.3903215,41.0228731 37.3903215,41.0228731 37.3903214,41.0228731 L26.0597047,41.0228731 L26.0597047,36.7049828 L47.1216577,36.7049828 L47.1216577,36.7049828 C48.6988555,36.7174583 49.987461,35.4388234 49.9999262,33.8490695 C50.0008337,33.7212111 49.9933764,33.5934274 49.9775159,33.466568 L49.9775159,32.3870954 L1.06318801e-07,32.3870954 L1.06318801e-07,33.466568 L1.06318801e-07,33.4665658 Z" id="形状"></path>
                    </g>
                </g>
            </g>
        </g>
    </g>
</svg>