<?xml version="1.0" encoding="UTF-8"?>
<svg width="480px" height="480px" viewBox="0 0 480 480" version="1.1" xmlns="http://www.w3.org/2000/svg" xmlns:xlink="http://www.w3.org/1999/xlink">
    <title>分支</title>
    <g id="页面-1" stroke="none" stroke-width="1" fill="none" fill-rule="evenodd">
        <g id="分支" transform="translate(5.000000, 5.000000)">
            <rect id="BORDER" stroke="#666666" stroke-width="10" x="0" y="0" width="470" height="470" rx="60"></rect>
            <g id="041-multiply-3" transform="translate(235.000000, 237.000000) rotate(-270.000000) translate(-235.000000, -237.000000) translate(94.000000, 59.000000)" fill="#666666" fill-rule="nonzero">
                <path d="M251.922881,83.9668966 C269.333127,78.4857241 282,62.1772414 282,42.9655172 C282,19.2792414 262.749111,0 239.08589,0 C215.422669,0 196.173313,19.2792414 196.173313,42.9655172 C196.173313,62.1772414 208.838654,78.4857241 226.248899,83.9668966 L197.969511,112.281172 C195.572537,114.681103 195.572537,118.560276 197.969511,120.960207 C199.164933,122.157103 200.734307,122.758621 202.303681,122.758621 C203.873056,122.758621 205.44243,122.157103 206.637852,120.960207 L231.4168,96.1506897 C223.674145,139.128483 186.11951,171.862069 141,171.862069 C101.220041,171.862069 66.6018522,194.314621 49.0444778,227.207793 L49.0444778,94.610069 L75.3621482,120.960207 C76.55757,122.157103 78.1269443,122.758621 79.6963185,122.758621 C81.2656928,122.758621 82.835067,122.157103 84.0304888,120.960207 C86.4274627,118.560276 86.4274627,114.681103 84.0304888,112.281172 L55.7511005,83.9668966 C73.1613461,78.4857241 85.8266867,62.1772414 85.8266867,42.9655172 C85.8266867,19.2792414 66.5773307,0 42.9141096,0 C19.2508886,0 0,19.2792414 0,42.9655172 C0,62.1772414 12.6668732,78.4857241 30.0771187,83.9668966 L1.79773046,112.281172 C-0.599243486,114.681103 -0.599243486,118.560276 1.79773046,120.960207 C2.99315225,122.157103 4.56252649,122.758621 6.13190074,122.758621 C7.70127499,122.758621 9.27064923,122.157103 10.466071,120.960207 L36.7837415,94.610069 L36.7837415,270.56 C16.0201846,273.55531 0,291.435103 0,313.034483 C0,336.720759 19.2508886,356 42.9141096,356 C66.5773307,356 85.8266867,336.720759 85.8266867,313.034483 C85.8266867,291.53331 69.9490332,273.721034 49.3264747,270.602966 C52.24453,222.444759 92.1838784,184.137931 141,184.137931 C193.78247,184.137931 237.41843,144.609655 244.198617,93.5911724 L271.533929,120.960207 C272.729351,122.157103 274.298725,122.758621 275.868099,122.758621 C277.437474,122.758621 279.006848,122.157103 280.20227,120.960207 C282.599243,118.560276 282.599243,114.681103 280.20227,112.281172 L251.922881,83.9668966 Z M12.2622689,42.9655172 C12.2622689,26.0432414 26.0126846,12.2758621 42.9141096,12.2758621 C59.8155346,12.2758621 73.5659504,26.0432414 73.5659504,42.9655172 C73.5659504,59.8877931 59.8155346,73.6551724 42.9141096,73.6551724 C26.0126846,73.6551724 12.2622689,59.8877931 12.2622689,42.9655172 Z M73.5659504,313.034483 C73.5659504,329.956759 59.8155346,343.724138 42.9141096,343.724138 C26.0126846,343.724138 12.2622689,329.956759 12.2622689,313.034483 C12.2622689,296.112207 26.0126846,282.344828 42.9141096,282.344828 C59.8155346,282.344828 73.5659504,296.112207 73.5659504,313.034483 Z M208.43405,42.9655172 C208.43405,26.0432414 222.184465,12.2758621 239.08589,12.2758621 C255.987315,12.2758621 269.737731,26.0432414 269.737731,42.9655172 C269.737731,59.8877931 255.987315,73.6551724 239.08589,73.6551724 C222.184465,73.6551724 208.43405,59.8877931 208.43405,42.9655172 Z" id="形状"></path>
            </g>
        </g>
    </g>
</svg>