<?xml version="1.0" encoding="UTF-8"?>
<svg width="480px" height="480px" viewBox="0 0 480 480" version="1.1" xmlns="http://www.w3.org/2000/svg" xmlns:xlink="http://www.w3.org/1999/xlink">
    <title>循环</title>
    <g id="页面-1" stroke="none" stroke-width="1" fill="none" fill-rule="evenodd">
        <g id="循环" transform="translate(5.000000, 5.000000)">
            <rect id="BORDER" stroke="#666666" stroke-width="10" x="0" y="0" width="470" height="470" rx="60"></rect>
            <g id="001-servers" transform="translate(72.000000, 72.000000)" fill="#666666" fill-rule="nonzero">
                <path d="M185.898478,308.097379 C170.068053,310.96325 153.28584,312.416879 136,312.416879 C63.8654873,312.416879 13.5998087,287.355629 13.5998087,264.875 L13.5998087,223.8805 C35.4004303,244.282879 81.4095147,258.083121 136,258.083121 C143.384812,258.083121 150.57901,257.7845 157.637421,257.268121 C161.37764,257.01025 164.206232,253.75025 163.934019,250.014621 C163.675831,246.265621 160.534226,243.31825 156.671607,243.711742 C149.926209,244.200742 143.071799,244.499363 135.999362,244.499363 C63.8648498,244.499363 13.5991712,219.438113 13.5991712,196.957484 L13.5991712,155.962984 C35.3997928,176.365363 81.4088772,190.165605 135.999362,190.165605 C190.589848,190.165605 236.598932,176.364727 258.399554,155.962984 L258.399554,192.515734 C258.399554,196.264734 261.446171,199.307613 265.199777,199.307613 C268.953383,199.307613 272,196.264734 272,192.515734 L272,61.125 C272,26.85425 212.255319,0 136,0 C59.7446809,0 0,26.85425 0,61.125 L0,264.875 C0,299.14575 59.7446809,326 136,326 C154.087816,326 171.686668,324.478879 188.319069,321.463379 C192.018488,320.784 194.466491,317.252758 193.799665,313.57125 C193.134114,309.890379 189.611284,307.45875 185.898478,308.097379 Z M136,13.5831211 C208.134513,13.5831211 258.400191,38.6443711 258.400191,61.125 C258.400191,83.6056289 208.1479,108.666879 136,108.666879 C63.8520998,108.666879 13.5998087,83.6056289 13.5998087,61.125 C13.5998087,38.6443711 63.8654873,13.5831211 136,13.5831211 Z M13.5998087,88.0473789 C35.4010678,108.449121 81.4095147,122.25 136,122.25 C190.590485,122.25 236.59957,108.449121 258.400191,88.0473789 L258.400191,129.041879 C258.400191,151.522508 208.134513,176.583758 136,176.583758 C63.8654873,176.583758 13.5998087,151.522508 13.5998087,129.041879 L13.5998087,88.0473789 Z" id="形状"></path>
                <path d="M278.752004,211 C275.026178,211 272.002109,214.030788 272.002109,217.764892 C272.002109,221.498996 275.026178,224.529785 278.752004,224.529785 C297.353921,224.529785 312.500211,239.696411 312.500211,258.352978 C312.500211,277.01018 297.353921,292.176172 278.752004,292.176172 L268.047217,292.176172 L276.767597,283.436416 C279.399973,280.79819 279.399973,276.509171 276.767597,273.870945 C274.13522,271.23272 269.85571,271.23272 267.223333,273.870945 L246.974282,294.164988 C246.920496,294.218894 246.906575,294.300071 246.8395,294.354611 C246.299736,294.936162 245.827047,295.599524 245.516351,296.343427 C244.827883,298.007539 244.827883,299.874591 245.516351,301.538702 C245.705553,301.985171 246.029538,302.323194 246.299103,302.715757 C246.528803,303.053779 246.663586,303.419072 246.960361,303.717141 L267.209412,324.011184 C268.545849,325.337273 270.273979,326 272.001476,326 C273.715685,326 275.443815,325.337273 276.766964,324.011184 C279.399341,321.372958 279.399341,317.083939 276.766964,314.445713 L268.033928,305.705323 L278.752637,305.705323 C304.792283,305.705323 326,284.464436 326,258.352344 C326,232.240253 304.806204,211 278.752004,211 Z" id="路径"></path>
                <path d="M257.38,222.290286 C257.798289,221.775854 258.217211,221.262056 258.4735,220.639156 C258.703211,220.098082 258.743711,219.502457 258.824711,218.934108 C258.851922,218.622658 259,218.352438 259,218.040988 C259,217.36417 258.7975,216.755225 258.622211,216.146279 C258.5545,215.929977 258.581711,215.699719 258.487422,215.496737 C258.136211,214.616938 257.609711,213.845607 256.935133,213.196065 L236.766133,192.979073 C234.133633,190.340309 229.853922,190.340309 227.221422,192.979073 C224.588922,195.617837 224.588922,199.907732 227.221422,202.546496 L235.928922,211.274715 L225.250211,211.274715 C199.195422,211.274715 178,232.519937 178,258.637357 C178,284.754778 199.195422,306 225.250211,306 C228.976211,306 232.000422,302.968593 232.000422,299.233727 C232.000422,295.498861 228.976211,292.467454 225.250211,292.467454 C206.647422,292.467454 191.500422,277.297732 191.500422,258.637357 C191.500422,239.976983 206.647422,224.807261 225.250211,224.807261 L235.9555,224.807261 L227.220789,233.562756 C224.588289,236.20152 224.588289,240.491415 227.220789,243.130179 C228.544,244.442583 230.271578,245.10608 231.999789,245.10608 C233.714078,245.10608 235.442289,244.443217 236.7655,243.144134 L257.0155,222.845949 C257.1775,222.682929 257.231922,222.465992 257.38,222.290286 Z" id="路径"></path>
            </g>
        </g>
    </g>
</svg>