<?xml version="1.0" encoding="UTF-8"?>
<svg width="480px" height="480px" viewBox="0 0 480 480" version="1.1" xmlns="http://www.w3.org/2000/svg" xmlns:xlink="http://www.w3.org/1999/xlink">
    <title>数据</title>
    <g id="页面-1" stroke="none" stroke-width="1" fill="none" fill-rule="evenodd">
        <g id="数据" transform="translate(5.000000, 5.000000)">
            <rect id="BORDER" stroke="#666666" stroke-width="10" x="0" y="0" width="470" height="470" rx="60"></rect>
            <g id="001-servers" transform="translate(72.000000, 72.000000)" fill="#666666" fill-rule="nonzero">
                <path d="M185.898478,308.097379 C170.068053,310.96325 153.28584,312.416879 136,312.416879 C63.8654873,312.416879 13.5998087,287.355629 13.5998087,264.875 L13.5998087,223.8805 C35.4004303,244.282879 81.4095147,258.083121 136,258.083121 C143.384812,258.083121 150.57901,257.7845 157.637421,257.268121 C161.37764,257.01025 164.206232,253.75025 163.934019,250.014621 C163.675831,246.265621 160.534226,243.31825 156.671607,243.711742 C149.926209,244.200742 143.071799,244.499363 135.999362,244.499363 C63.8648498,244.499363 13.5991712,219.438113 13.5991712,196.957484 L13.5991712,155.962984 C35.3997928,176.365363 81.4088772,190.165605 135.999362,190.165605 C190.589848,190.165605 236.598932,176.364727 258.399554,155.962984 L258.399554,192.515734 C258.399554,196.264734 261.446171,199.307613 265.199777,199.307613 C268.953383,199.307613 272,196.264734 272,192.515734 L272,61.125 C272,26.85425 212.255319,0 136,0 C59.7446809,0 0,26.85425 0,61.125 L0,264.875 C0,299.14575 59.7446809,326 136,326 C154.087816,326 171.686668,324.478879 188.319069,321.463379 C192.018488,320.784 194.466491,317.252758 193.799665,313.57125 C193.134114,309.890379 189.611284,307.45875 185.898478,308.097379 Z M136,13.5831211 C208.134513,13.5831211 258.400191,38.6443711 258.400191,61.125 C258.400191,83.6056289 208.1479,108.666879 136,108.666879 C63.8520998,108.666879 13.5998087,83.6056289 13.5998087,61.125 C13.5998087,38.6443711 63.8654873,13.5831211 136,13.5831211 Z M13.5998087,88.0473789 C35.4010678,108.449121 81.4095147,122.25 136,122.25 C190.590485,122.25 236.59957,108.449121 258.400191,88.0473789 L258.400191,129.041879 C258.400191,151.522508 208.134513,176.583758 136,176.583758 C63.8654873,176.583758 13.5998087,151.522508 13.5998087,129.041879 L13.5998087,88.0473789 Z" id="形状"></path>
                <path d="M232.675237,326 C231.847091,319.664671 231.571042,314.568862 231.571042,305.203593 L231.571042,282.616766 L245.649526,282.616766 C250.066306,282.616766 253.516915,283.718563 256.415426,286.335329 C259.866035,289.365269 261.522327,292.532934 265.939107,304.51497 C270.217862,315.946108 271.874154,321.592814 272.7023,326 L305,326 C301.549391,318.700599 299.893099,315.257485 298.374831,311.401198 C292.163735,296.526946 290.231394,291.844311 288.161028,287.437126 C283.744249,277.658683 280.569689,274.491018 273.530447,272.287425 C280.29364,270.083832 283.192152,268.568862 286.64276,265.401198 C292.02571,260.305389 294.786198,252.592814 294.786198,242.814371 C294.786198,222.982036 281.811908,211.413174 259.451962,211.413174 L223.565629,211.413174 C214.179973,211.413174 209.073072,211.275449 203,211 C203.790503,217.310289 204.077959,222.240201 204.102458,230.101986 L204.104195,305.341317 C204.104195,315.532934 203.828146,319.664671 203,326 L232.675237,326 Z M252.131474,259 L231,259 L231,235 L252.266932,235 C260.665339,235 265,238.910112 265,246.460674 C265,254.146067 260.123506,259 252.131474,259 Z" id="R"></path>
            </g>
        </g>
    </g>
</svg>