<?xml version="1.0" encoding="UTF-8"?>
<svg width="480px" height="480px" viewBox="0 0 480 480" version="1.1" xmlns="http://www.w3.org/2000/svg" xmlns:xlink="http://www.w3.org/1999/xlink">
    <title>数据</title>
    <g id="页面-1" stroke="none" stroke-width="1" fill="none" fill-rule="evenodd">
        <g id="数据" transform="translate(5.000000, 5.000000)">
            <rect id="BORDER" stroke="#666666" stroke-width="10" x="0" y="0" width="470" height="470" rx="60"></rect>
            <g id="001-servers" transform="translate(72.000000, 72.000000)" fill="#666666" fill-rule="nonzero">
                <path d="M185.898478,308.097379 C170.068053,310.96325 153.28584,312.416879 136,312.416879 C63.8654873,312.416879 13.5998087,287.355629 13.5998087,264.875 L13.5998087,223.8805 C35.4004303,244.282879 81.4095147,258.083121 136,258.083121 C143.384812,258.083121 150.57901,257.7845 157.637421,257.268121 C161.37764,257.01025 164.206232,253.75025 163.934019,250.014621 C163.675831,246.265621 160.534226,243.31825 156.671607,243.711742 C149.926209,244.200742 143.071799,244.499363 135.999362,244.499363 C63.8648498,244.499363 13.5991712,219.438113 13.5991712,196.957484 L13.5991712,155.962984 C35.3997928,176.365363 81.4088772,190.165605 135.999362,190.165605 C190.589848,190.165605 236.598932,176.364727 258.399554,155.962984 L258.399554,192.515734 C258.399554,196.264734 261.446171,199.307613 265.199777,199.307613 C268.953383,199.307613 272,196.264734 272,192.515734 L272,61.125 C272,26.85425 212.255319,0 136,0 C59.7446809,0 0,26.85425 0,61.125 L0,264.875 C0,299.14575 59.7446809,326 136,326 C154.087816,326 171.686668,324.478879 188.319069,321.463379 C192.018488,320.784 194.466491,317.252758 193.799665,313.57125 C193.134114,309.890379 189.611284,307.45875 185.898478,308.097379 Z M136,13.5831211 C208.134513,13.5831211 258.400191,38.6443711 258.400191,61.125 C258.400191,83.6056289 208.1479,108.666879 136,108.666879 C63.8520998,108.666879 13.5998087,83.6056289 13.5998087,61.125 C13.5998087,38.6443711 63.8654873,13.5831211 136,13.5831211 Z M13.5998087,88.0473789 C35.4010678,108.449121 81.4095147,122.25 136,122.25 C190.590485,122.25 236.59957,108.449121 258.400191,88.0473789 L258.400191,129.041879 C258.400191,151.522508 208.134513,176.583758 136,176.583758 C63.8654873,176.583758 13.5998087,151.522508 13.5998087,129.041879 L13.5998087,88.0473789 Z" id="形状"></path>
                <path d="M184.06746,295 C186.900794,294.863962 188.789683,294.795943 193.984127,294.795943 L208.218254,294.795943 C216.246032,294.795943 222.654762,292.483294 227.174603,287.994033 C232.301587,282.824582 235,275.342482 235,266.023866 C235,256.977327 232.503968,249.835322 227.579365,244.937947 C223.059524,240.516706 216.380952,238.204057 208.083333,238.204057 L193.152916,238.203521 C188.209284,238.196902 186.560033,238.129062 184,238 C184.455357,241.017133 184.597075,243.21205 184.606617,247.5122 L184.607143,285.069212 C184.607143,289.76253 184.472222,292.00716 184.06746,295 Z M207.348837,283 L198,283 L198,251 L207.139535,251 C212.162791,251 215.511628,252.062241 217.953488,254.385892 C220.674419,256.975104 222,261.091286 222,266.73444 C222,272.244813 220.465116,276.692946 217.604651,279.481328 C215.093023,281.871369 211.883721,283 207.348837,283 Z M260.90694,296 C267.621451,296 273.047319,294.06079 276.913249,290.316109 C278.812303,288.443769 279.829653,286.905775 281.38959,283.428571 L269.588328,280.151976 C269.045741,281.890578 268.570978,282.62614 267.553628,283.56231 C265.790221,285.167173 263.416404,286.036474 260.70347,286.036474 C255.345426,286.036474 252.157729,283.161094 251.479495,277.744681 L282,277.744681 C281.932177,277.075988 281.932177,276.674772 281.932177,276.407295 C281.728707,272.595745 281.457413,269.787234 280.914826,267.647416 C278.541009,257.683891 271.148265,252 260.567823,252 C247.613565,252 239,260.759878 239,274 C239,280.620061 241.170347,286.303951 245.171924,290.316109 C249.037855,294.12766 254.260252,296 260.90694,296 Z M269,268 L251,268 C252.190661,263.285714 255.202335,261 260.175097,261 C265.007782,261 268.019455,263.428571 269,268 Z M307.429112,295 C307.046314,291.775882 306.9096,289.566939 306.900323,285.191686 L306.899811,263.884706 L308.950851,263.884706 C312.655955,263.884706 314.839319,264.021176 317.618147,264.362353 L317.618147,252.898824 C315.170132,253.171765 311.597353,253.376471 308.818526,253.376471 L306.899811,253.376471 L306.899811,251.670588 C306.899811,248.122353 308.1569,246.757647 311.398866,246.757647 C313.913043,246.757647 315.897921,247.303529 317.94896,248.463529 L320,238.432941 C316.361059,237.409412 313.648393,237 309.943289,237 C299.15879,237 294.196597,241.162353 294.196597,250.169412 L294.196597,253.376471 L292.410208,253.376471 C289.89603,253.376471 286.852552,253.171765 285,252.898824 L285,264.362353 C287.249527,264.021176 289.300567,263.884706 292.410208,263.884706 L294.196597,263.884706 L294.196597,284.696471 C294.196597,289.131765 294.064272,291.656471 293.667297,295 L307.429112,295 Z" id="Def"></path>
            </g>
        </g>
    </g>
</svg>