<?xml version="1.0" encoding="UTF-8"?>
<svg width="480px" height="480px" viewBox="0 0 480 480" version="1.1" xmlns="http://www.w3.org/2000/svg" xmlns:xlink="http://www.w3.org/1999/xlink">
    <title>数据</title>
    <g id="页面-1" stroke="none" stroke-width="1" fill="none" fill-rule="evenodd">
        <g id="数据" transform="translate(5.000000, 5.000000)">
            <rect id="BORDER" stroke="#666666" stroke-width="10" x="0" y="0" width="470" height="470" rx="60"></rect>
            <g id="001-servers" transform="translate(72.000000, 72.000000)" fill="#666666" fill-rule="nonzero">
                <path d="M185.898478,308.097379 C170.068053,310.96325 153.28584,312.416879 136,312.416879 C63.8654873,312.416879 13.5998087,287.355629 13.5998087,264.875 L13.5998087,223.8805 C35.4004303,244.282879 81.4095147,258.083121 136,258.083121 C143.384812,258.083121 150.57901,257.7845 157.637421,257.268121 C161.37764,257.01025 164.206232,253.75025 163.934019,250.014621 C163.675831,246.265621 160.534226,243.31825 156.671607,243.711742 C149.926209,244.200742 143.071799,244.499363 135.999362,244.499363 C63.8648498,244.499363 13.5991712,219.438113 13.5991712,196.957484 L13.5991712,155.962984 C35.3997928,176.365363 81.4088772,190.165605 135.999362,190.165605 C190.589848,190.165605 236.598932,176.364727 258.399554,155.962984 L258.399554,192.515734 C258.399554,196.264734 261.446171,199.307613 265.199777,199.307613 C268.953383,199.307613 272,196.264734 272,192.515734 L272,61.125 C272,26.85425 212.255319,0 136,0 C59.7446809,0 0,26.85425 0,61.125 L0,264.875 C0,299.14575 59.7446809,326 136,326 C154.087816,326 171.686668,324.478879 188.319069,321.463379 C192.018488,320.784 194.466491,317.252758 193.799665,313.57125 C193.134114,309.890379 189.611284,307.45875 185.898478,308.097379 Z M136,13.5831211 C208.134513,13.5831211 258.400191,38.6443711 258.400191,61.125 C258.400191,83.6056289 208.1479,108.666879 136,108.666879 C63.8520998,108.666879 13.5998087,83.6056289 13.5998087,61.125 C13.5998087,38.6443711 63.8654873,13.5831211 136,13.5831211 Z M13.5998087,88.0473789 C35.4010678,108.449121 81.4095147,122.25 136,122.25 C190.590485,122.25 236.59957,108.449121 258.400191,88.0473789 L258.400191,129.041879 C258.400191,151.522508 208.134513,176.583758 136,176.583758 C63.8654873,176.583758 13.5998087,151.522508 13.5998087,129.041879 L13.5998087,88.0473789 Z" id="形状"></path>
                <path d="M202.12963,321 C207.574074,320.739857 211.203704,320.609785 221.185185,320.609785 L248.537037,320.609785 C263.962963,320.609785 276.277778,316.187351 284.962963,307.602625 C294.814815,297.717184 300,283.409308 300,265.589499 C300,248.289976 295.203704,234.632458 285.740741,225.267303 C277.055556,216.812649 264.222222,212.390215 248.277778,212.390215 L219.587956,212.389189 C210.088429,212.376532 206.919278,212.246803 202,212 C202.875,217.769605 203.147321,221.966902 203.165657,230.189996 L203.166667,302.009547 C203.166667,310.984487 202.907407,315.27685 202.12963,321 Z M246.52907,298 L229,298 L229,235 L246.136628,235 C255.555233,235 261.834302,237.091286 266.412791,241.665975 C271.514535,246.763485 274,254.86722 274,265.977178 C274,276.825726 271.122093,285.582988 265.758721,291.072614 C261.049419,295.778008 255.031977,298 246.52907,298 Z" id="D"></path>
            </g>
        </g>
    </g>
</svg>