<?xml version="1.0" encoding="UTF-8"?>
<svg width="512px" height="512px" viewBox="0 0 512 512" version="1.1" xmlns="http://www.w3.org/2000/svg" xmlns:xlink="http://www.w3.org/1999/xlink">
    <title>ICON</title>
    <g id="ICON" stroke="none" stroke-width="1" fill="none" fill-rule="evenodd">
        <rect id="BORDER" stroke="#666666" stroke-width="10" x="21" y="21" width="470" height="470" rx="60"></rect>
        <g id="function-(1)" transform="translate(119.000000, 119.000000)" fill="#666666" fill-rule="nonzero">
            <path d="M230.498876,96.4180085 C226.810237,93.9137468 221.748514,94.8152598 219.194092,98.4340613 L201.5,123.501115 L183.805908,98.4340613 C181.252027,94.8152598 176.190846,93.9121531 172.501124,96.4180085 C168.811402,98.9233327 167.891138,103.887232 170.445561,107.505502 L191.618131,137.500331 L170.445561,167.49516 C167.891138,171.11343 168.811402,176.07733 172.501124,178.582654 C173.911582,179.540478 175.522992,180 177.118152,180 C179.694241,180 182.228623,178.800993 183.805908,176.566601 L201.5,151.499547 L219.194092,176.566601 C220.771377,178.801524 223.305218,180 225.881848,180 C227.476467,180 229.088418,179.540478 230.498876,178.582654 C234.188598,176.07733 235.108862,171.11343 232.554439,167.49516 L211.381869,137.500331 L232.554439,107.505502 C235.108862,103.887232 234.188056,98.9233327 230.498876,96.4180085 L230.498876,96.4180085 Z" id="路径"></path>
            <path d="M159.556151,77.6668932 C162.081227,74.0295949 161.206608,69.0196502 157.595466,66.4660767 C153.977916,63.908207 148.980624,64.7830274 146.43686,68.4224738 C146.029451,69.0051504 136.402764,82.972204 131.620657,106.912963 C127.272656,128.67929 126.192464,163.42776 145.736844,205.361679 C147.099499,208.284729 149.983393,210 152.994369,210 C154.132763,210 155.289845,209.754578 156.388192,209.236882 C160.393393,207.348687 162.11807,202.55248 160.241216,198.523688 C146.182163,168.359298 141.783436,138.880158 147.165175,110.9047 C151.164503,90.1152284 159.392226,77.9064082 159.556151,77.6668932 Z" id="路径"></path>
            <path d="M271.379477,106.912963 C266.597386,82.971667 256.970731,69.0051504 256.563324,68.4224738 C254.019033,64.7830274 249.02336,63.908207 245.404755,66.4660767 C241.786683,69.0250205 240.915804,74.050002 243.459561,77.6889114 C243.793282,78.1663303 276.440292,126.257826 242.759013,198.523688 C240.881631,202.551943 242.606836,207.348687 246.612024,209.236882 C247.710902,209.755115 248.867446,210 250.005836,210 C253.016268,210 255.900687,208.284729 257.263337,205.361679 C276.807119,163.42776 275.727464,128.67929 271.379477,106.912963 Z" id="路径"></path>
            <path d="M104.722222,128.972656 L81.6205,128.972656 L90.6341296,56.8143281 C93.5368148,33.5773086 113.446389,16.0546875 136.944444,16.0546875 C141.393259,16.0546875 145,12.4605781 145,8.02734375 C145,3.59410938 141.393259,0 136.944444,0 C105.333907,0 78.5513333,23.5720273 74.646537,54.8310391 L65.3847963,128.972656 L40.2777778,128.972656 C35.828963,128.972656 32.2222222,132.566766 32.2222222,137 C32.2222222,141.433234 35.828963,145.027344 40.2777778,145.027344 L63.3795,145.027344 L54.3658704,217.185672 C51.4631852,240.422691 31.5536111,257.945312 8.05555556,257.945312 C3.60674074,257.945312 0,261.539422 0,265.972656 C0,270.405891 3.60674074,274 8.05555556,274 C39.6660926,274 66.4486667,250.427973 70.353463,219.168961 L79.6152037,145.027344 L104.722222,145.027344 C109.171037,145.027344 112.777778,141.433234 112.777778,137 C112.777778,132.566766 109.171037,128.972656 104.722222,128.972656 L104.722222,128.972656 Z" id="路径"></path>
        </g>
    </g>
</svg>