<svg t="1598964387857" class="icon" viewBox="0 0 1024 1024" version="1.1" xmlns="http://www.w3.org/2000/svg" p-id="8461" width="200" height="200"><path d="M862.7 131.3H160.5c-32.3 0-58.5 26.2-58.5 58.5v643.6c0 32.3 26.2 58.5 58.5 58.5h702.1c32.3 0 58.5-26.2 58.5-58.5V189.8c0.1-32.3-26.2-58.5-58.4-58.5z m19.5 663.1c0 32.4-26.2 58.5-58.5 58.5H199.4c-32.4 0-58.5-26.2-58.5-58.5V228.9c0-32.4 26.2-58.5 58.5-58.5h624.2c32.3 0 58.5 26.2 58.5 58.5v565.5zM406.3 595.2l-61.4 58.3-67.4-64.1-27.6 26.2 67.4 64.1-59.4 56.4 27.4 26.1 59.4-56.4 54.5 51.9 27.6-26.2-54.4-51.9 61.4-58.3-27.5-26.1z m-50.6-333.5h-39v73.9h-78v36.9h78V447h39v-74.5h78v-36.9h-78v-73.9zM589.8 651h195.1v-37H589.8v37z m0 92.4h195.1v-36.9H589.8v36.9z m0-370.8h195.1v-36.9H589.8v36.9z m0 0" p-id="8462" fill="#0527AF"></path></svg>