<?xml version="1.0" encoding="UTF-8"?>
<svg width="480px" height="480px" viewBox="0 0 480 480" version="1.1" xmlns="http://www.w3.org/2000/svg" xmlns:xlink="http://www.w3.org/1999/xlink">
    <title>子流程</title>
    <g id="页面-1" stroke="none" stroke-width="1" fill="none" fill-rule="evenodd">
        <g id="子流程" transform="translate(6.000000, 6.000000)">
            <rect id="BORDER" stroke="#666666" stroke-width="12" x="0" y="0" width="468" height="468" rx="100"></rect>
            <g id="流程说明" transform="translate(65.000000, 72.000000)" fill="#666666" fill-rule="nonzero">
                <path d="M169.5,217.795227 C165.418216,217.795227 163.868649,217.340713 160.391574,215.560533 L160.278191,215.48478 L88.7713755,178.517641 C82.2329616,175.373919 78,168.707714 78,161.397613 C78,154.125389 82.2329616,147.421308 88.7713755,144.277586 L160.391574,107.234694 C164.473358,105.189381 167.232342,105 169.5,105 C171.767658,105 174.526642,105.189381 178.608426,107.234694 L178.721809,107.310446 L250.342007,144.353338 C256.918216,147.686441 261,154.201141 261,161.397613 C261,168.594085 256.918216,175.108786 250.342007,178.441889 L179.704461,214.99239 C176.038414,217.795227 172.145601,217.795227 169.5,217.795227 Z M169.386617,197.682982 L169.5,197.720858 L169.537794,197.682982 L239.684015,161.397613 L169.613383,125.150121 L169.5,125.112245 L169.386617,125.150121 L99.3159851,161.397613 L169.386617,197.682982 Z M227.287485,324 L111.712515,324 C93.4578686,324 78.6047088,309.114666 78.6047088,290.820477 L78.6047088,267.640263 C78.6047088,249.346074 93.4578686,234.46074 111.712515,234.46074 L227.325279,234.46074 C245.579926,234.46074 260.433086,249.346074 260.433086,267.640263 L260.433086,290.820477 C260.433086,309.114666 245.542131,324 227.287485,324 Z M111.712515,254.497233 C104.493804,254.497233 98.5978934,260.405915 98.5978934,267.640263 L98.5978934,290.820477 C98.5978934,298.054825 104.493804,303.963507 111.712515,303.963507 L227.325279,303.963507 C234.54399,303.963507 240.439901,298.054825 240.439901,290.820477 L240.439901,267.640263 C240.439901,260.405915 234.54399,254.497233 227.325279,254.497233 L111.712515,254.497233 Z" id="形状"></path>
                <path d="M203.67117,291 C196.710455,291 192.095199,286.394136 192.095199,279.447587 C192.095199,272.501038 196.710455,267.895174 203.67117,267.895174 C210.631885,267.895174 215.247142,272.501038 215.247142,279.447587 C215.247142,286.356383 210.631885,291 203.67117,291 M226.823114,89.248054 L111.139056,89.248054 C92.8671794,89.248054 78,74.4111313 78,56.1764401 L78,33.0716139 C78,14.8369227 92.8671794,0 111.139056,0 L226.860944,0 C245.132821,0 260,14.8369227 260,33.0716139 L260,56.1764401 C260,74.4111313 245.094991,89.248054 226.823114,89.248054 L226.823114,89.248054 Z M111.139056,19.9713285 C103.913531,19.9713285 98.0120557,25.860794 98.0120557,33.0716139 L98.0120557,56.1764401 C98.0120557,63.38726 103.913531,69.2767255 111.139056,69.2767255 L226.860944,69.2767255 C234.086469,69.2767255 239.987944,63.38726 239.987944,56.1764401 L239.987944,33.0716139 C239.987944,25.860794 234.086469,19.9713285 226.860944,19.9713285 L111.139056,19.9713285 Z" id="形状"></path>
                <path d="M122.887739,44.5581522 C122.887739,37.6081522 127.495085,33 134.44387,33 C141.392654,33 146,37.6081522 146,44.5581522 C146,51.5081522 141.392654,56.1163043 134.44387,56.1163043 C127.53285,56.1163043 122.887739,51.4703804 122.887739,44.5581522 M50.945163,172 L10.00776,172 C4.4940507,172 0,167.542935 0,161.990489 C0,156.475815 4.45628557,151.980978 10.00776,151.980978 L50.9829281,151.980978 C56.4966374,151.980978 60.990688,156.438043 60.990688,161.990489 C60.9529229,167.542935 56.4966374,172 50.945163,172 Z M40.4842214,54.869837 L10.00776,54.869837 C4.4940507,54.869837 0,50.4127717 0,44.8603261 C0,39.3456522 4.45628557,34.8508152 10.00776,34.8508152 L40.4842214,34.8508152 C45.9979307,34.8508152 50.4919814,39.3078804 50.4919814,44.8603261 C50.4542162,50.375 45.9979307,54.869837 40.4842214,54.869837 Z" id="形状"></path>
                <path d="M10.0078212,171.670687 C4.49407821,171.670687 0,167.207483 0,161.647389 L0,46.6253255 C0,41.1030561 4.45631285,36.6020282 10.0078212,36.6020282 C15.5215642,36.6020282 20.0156425,41.0652323 20.0156425,46.6253255 L20.0156425,161.685213 C19.9778771,167.207483 15.5215642,171.670687 10.0078212,171.670687 Z M39.9557542,76.2413321 L39.9557542,13 L71.5275978,44.620666 L39.9557542,76.2413321 Z M327.992179,171.670687 L287.01676,171.670687 C281.503017,171.670687 277.008939,167.207483 277.008939,161.647389 C277.008939,156.12512 281.465251,151.624092 287.01676,151.624092 L327.992179,151.624092 C333.505922,151.624092 338,156.087296 338,161.647389 C338,167.207483 333.505922,171.670687 327.992179,171.670687 Z M327.992179,289 L297.515531,289 C292.001788,289 287.507709,284.536796 287.507709,278.976703 C287.507709,273.454433 291.964022,268.953406 297.515531,268.953406 L327.992179,268.953406 C333.505922,268.953406 338,273.41661 338,278.976703 C338,284.498972 333.505922,289 327.992179,289 Z" id="形状"></path>
                <path d="M327.931398,287.465682 C322.384169,287.465682 317.862797,283.022402 317.862797,277.487131 L317.862797,162.978551 C317.862797,157.480934 322.346174,153 327.931398,153 C333.478628,153 338,157.443279 338,162.978551 L338,277.524786 C338,283.022402 333.478628,287.465682 327.931398,287.465682 Z M297.763588,248.040991 L297.763588,311 L266,279.520496 L297.763588,248.040991 L297.763588,248.040991 Z" id="形状"></path>
            </g>
        </g>
    </g>
</svg>