<?xml version="1.0" encoding="UTF-8"?>
<svg width="480px" height="480px" viewBox="0 0 480 480" version="1.1" xmlns="http://www.w3.org/2000/svg" xmlns:xlink="http://www.w3.org/1999/xlink">
    <title>编组</title>
    <g id="页面-1" stroke="none" stroke-width="1" fill="none" fill-rule="evenodd">
        <g id="编组" transform="translate(5.000000, 5.000000)">
            <g id="结束" stroke="#666666" stroke-width="10">
                <rect id="BORDER" x="0" y="0" width="470" height="470" rx="60"></rect>
            </g>
            <g id="api-(1)" transform="translate(94.000000, 90.000000)" fill="#666666" fill-rule="nonzero">
                <path d="M260.473578,110.207156 C261.832411,105.349957 262.519219,100.335891 262.519219,95.2428223 C262.519219,64.6503105 237.617886,39.7612852 207.010022,39.7612852 C204.809167,39.7612852 202.627074,39.8874609 200.481936,40.1381074 C196.09046,29.2165137 188.822123,19.7868633 179.25514,12.6624785 C168.130331,4.37864063 154.899046,0 140.991756,0 C127.085034,0 113.854318,4.37864063 102.72951,12.6624785 C93.1625265,19.7868633 85.8941893,29.215377 81.5027127,40.1364023 C79.3621237,39.8874609 77.1794621,39.7612852 74.9740584,39.7612852 C44.3758596,39.7612852 19.4813498,64.6503105 19.4813498,95.2428223 C19.4813498,100.335891 20.1681576,105.349957 21.526991,110.207156 C8.13253253,118.568291 0,133.077938 0,149.148867 C0,174.491443 20.6218601,195.109248 45.969504,195.109248 L54.6739973,195.109248 L54.6739973,213.591727 C54.6739973,220.226186 60.0723751,225.623326 66.7079167,225.623326 L68.954256,225.623326 C70.4819486,230.895428 72.5884246,235.975424 75.2498049,240.801932 L73.6737856,242.377992 C71.3967448,244.639494 70.1402503,247.658619 70.1345648,250.878375 C70.1294478,254.106088 71.3813939,257.138854 73.6578662,259.414564 L86.2586296,272.029301 C90.9622398,276.701783 98.5972915,276.694963 103.271337,272.02248 L104.87749,270.422549 C109.701064,273.078492 114.777074,275.180854 120.04696,276.70633 L120.04696,278.953055 C120.04696,285.596039 125.452729,291 132.096799,291 L149.902633,291 C156.547271,291 161.952472,285.595471 161.952472,278.953055 L161.952472,276.704625 C167.211555,275.179148 172.284722,273.077924 177.112845,270.423686 L178.705352,272.016797 C183.401571,276.711445 191.04174,276.710877 195.737959,272.016229 L208.352368,259.404334 C213.024708,254.702297 213.019022,247.070367 208.339291,242.391064 L206.745647,240.797385 C209.399636,235.971445 211.505543,230.893154 213.038921,225.623326 L215.276164,225.623326 C221.920802,225.623326 227.326003,220.226186 227.326003,213.591727 L227.326003,195.109248 L236.030496,195.109248 C261.37814,195.109248 282,174.491443 282,149.148867 C282,133.077938 273.868036,118.568291 260.473578,110.207156 Z M215.956149,213.591727 C215.956149,213.945814 215.637761,214.256139 215.276732,214.256139 L208.63778,214.256139 C205.980379,214.256139 203.677185,216.095918 203.092147,218.687637 C201.49168,225.769963 198.702945,232.494223 194.804969,238.672857 C193.388144,240.918445 193.71506,243.846064 195.593548,245.723355 L200.298295,250.427666 C200.54732,250.676607 200.541066,251.13641 200.298864,251.380236 L187.6981,263.97849 C187.545729,264.130811 187.355265,264.162639 187.222793,264.162639 C187.089752,264.162639 186.899288,264.130242 186.747485,263.979059 L182.042738,259.274748 C180.163682,257.396889 177.234515,257.069514 174.988175,258.486434 C168.800651,262.388789 162.083807,265.17034 155.024127,266.753221 C152.42813,267.335221 150.582618,269.63935 150.582618,272.299271 L150.582618,278.953055 C150.582618,279.308848 150.259113,279.632812 149.90377,279.632812 L132.097936,279.632812 C131.73577,279.632812 131.419088,279.3151 131.419088,278.953055 L131.419088,272.299271 C131.419088,269.638213 129.573007,267.334084 126.975873,266.752652 C119.902548,265.169771 113.187978,262.389357 107.019216,258.489844 C104.774582,257.07065 101.846552,257.393479 99.9663588,259.267928 L95.2388694,263.97849 C94.9858649,264.230273 94.5350051,264.22459 94.2905288,263.981332 L81.7034107,251.380236 C81.5408055,251.217686 81.5066926,251.027854 81.5066926,250.896562 C81.5072611,250.714687 81.5686645,250.560662 81.7028421,250.427666 L86.4081581,245.723355 C88.2889199,243.843223 88.6141303,240.910488 87.1916193,238.664332 C83.2822727,232.492518 80.4969486,225.77451 78.912401,218.697867 C78.3313434,216.101602 76.0258751,214.256139 73.3639261,214.256139 L66.7079167,214.256139 C66.3485934,214.256139 66.044988,213.952066 66.044988,213.591727 L66.044988,195.109248 L92.5297309,195.109248 C91.9128547,198.244887 91.5904871,201.443613 91.5904871,204.682693 C91.5904871,231.917338 113.751979,254.07426 140.992325,254.07426 C168.241767,254.07426 190.41065,231.917338 190.41065,204.682693 C190.41065,201.45157 190.08544,198.253412 189.462309,195.109248 L215.956149,195.109248 L215.956149,213.591727 L215.956149,213.591727 Z M236.031065,183.742061 L166.516219,183.742061 C163.376688,183.742061 160.830723,186.287174 160.830723,189.425654 C160.830723,192.564135 163.376688,195.109248 166.516219,195.109248 L177.804201,195.109248 C178.62007,198.231814 179.039659,201.436793 179.039659,204.682693 C179.039659,225.649471 161.971234,242.707072 140.992325,242.707072 C120.021944,242.707072 102.961478,225.648902 102.961478,204.682693 C102.961478,201.422584 103.377087,198.217605 104.184428,195.109248 L115.46843,195.109248 C118.607961,195.109248 121.153926,192.564135 121.153926,189.425654 C121.153926,186.287174 118.607961,183.742061 115.46843,183.742061 L45.969504,183.742061 C26.8918244,183.742061 11.3709907,168.223576 11.3709907,149.148867 C11.3709907,135.783896 18.8440057,123.853465 30.8739453,118.012436 C33.5188377,116.727943 34.7480418,113.63891 33.7075962,110.889187 C31.8131891,105.883078 30.852909,100.619502 30.852909,95.2433906 C30.852909,70.9187461 50.6452553,51.129041 74.974627,51.129041 C78.1096091,51.129041 81.1666999,51.4444805 84.0617542,52.0651289 C86.9278124,52.6806621 89.793302,51.0148008 90.676828,48.2196094 C97.6404227,26.1774961 117.860887,11.3671875 140.991756,11.3671875 C164.123762,11.3671875 184.343658,26.1769277 191.307253,48.2196094 C192.189642,51.0125273 195.050583,52.6795254 197.916641,52.0662656 C200.830457,51.4439121 203.889822,51.129041 207.009454,51.129041 C231.347354,51.129041 251.14766,70.9187461 251.14766,95.2433906 C251.14766,100.619502 250.187379,105.883646 248.292972,110.889187 C247.252527,113.63891 248.481731,116.727943 251.126623,118.012436 C263.156563,123.853465 270.629578,135.783896 270.629578,149.148867 C270.629578,168.223576 255.108744,183.742061 236.031065,183.742061 L236.031065,183.742061 Z" id="形状"></path>
                <path d="M201.5,81 C198.4629,81 196,83.528792 196,86.6471461 L196,142.352854 C196,145.471208 198.4629,148 201.5,148 C204.5371,148 207,145.471208 207,142.352854 L207,86.6471461 C207,83.528792 204.53765,81 201.5,81 Z" id="路径"></path>
                <path d="M155.732733,81 L139.723056,81 C136.61372,81 134,83.6068754 134,86.7281376 L134,144.271862 C134,147.43494 136.562785,150 139.723056,150 C142.883328,150 145.446112,147.43494 145.446112,144.271862 L145.446112,124.974912 C149.005853,124.953145 153.380557,124.930233 155.732733,124.930233 C168.010978,124.930233 178,115.076691 178,102.965116 C178,90.8535423 168.010978,81 155.732733,81 L155.732733,81 Z M155.732733,113.473385 C153.390859,113.473385 149.079108,113.495725 145.530813,113.517492 C145.513644,109.856639 145.495331,105.364061 145.495331,102.964544 C145.495331,100.931055 145.481023,96.2689236 145.467288,92.4557024 L155.733306,92.4557024 C161.598866,92.4557024 166.55446,97.2679108 166.55446,102.964544 C166.55446,108.661177 161.598293,113.473385 155.732733,113.473385 Z" id="形状"></path>
                <path d="M95.5546987,85.5213789 C95.5400367,85.4818584 95.5248108,85.4417651 95.509021,85.4028173 C94.4477215,82.7285941 91.9303776,81 89.0961101,81 C86.2618426,81 83.7444987,82.7285941 82.6831991,85.4028173 C82.669665,85.437183 82.6561309,85.4709759 82.6437247,85.5053416 L61.3709283,142.232209 C60.2622594,145.188231 61.7228151,148.497074 64.633212,149.623123 C67.5441728,150.749172 70.8013812,149.26572 71.9100501,146.309698 L75.8236627,135.873411 L102.211787,135.873411 L106.084234,146.293088 C106.936319,148.586425 109.082038,150 111.360844,150 C112.022323,150 112.695081,149.880866 113.350921,149.629423 C116.264702,148.512538 117.734844,145.207705 116.635198,142.248246 L95.5546987,85.5213789 Z M80.1196137,124.418182 L89.0775007,100.530593 L97.9547469,124.418182 L80.1196137,124.418182 Z" id="形状"></path>
                <path d="M141.491762,184 C138.459211,184 136,186.4629 136,189.5 C136,192.5371 138.459211,195 141.491762,195 L141.523615,195 C144.556166,195 147,192.5371 147,189.5 C147,186.4629 144.524863,184 141.491762,184 L141.491762,184 Z" id="路径"></path>
            </g>
        </g>
    </g>
</svg>