<?xml version="1.0" encoding="UTF-8"?>
<svg width="480px" height="480px" viewBox="0 0 480 480" version="1.1" xmlns="http://www.w3.org/2000/svg" xmlns:xlink="http://www.w3.org/1999/xlink">
    <title>循环</title>
    <g id="页面-1" stroke="none" stroke-width="1" fill="none" fill-rule="evenodd">
        <g id="循环" transform="translate(5.000000, 5.000000)">
            <rect id="BORDER" stroke="#666666" stroke-width="10" x="0" y="0" width="470" height="470" rx="60"></rect>
            <g id="list-(1)" transform="translate(67.000000, 65.000000)" fill="#666666" fill-rule="nonzero">
                <path d="M30,96 C34.9700571,96 39,92.0929769 39,87.2730295 L39,8.72697049 C39.0006857,3.90702313 34.9700571,0 30,0 C25.0299429,0 21,3.90702313 21,8.72697049 L21,87.2723646 C21,92.092312 25.0292571,96 30,96 Z" id="路径"></path>
                <path d="M48.2986007,123 L9.1376627,123 C4.33213525,123 0.435600377,126.907077 0.435600377,131.727091 C0.435600377,136.547106 4.33279827,140.454183 9.1376627,140.454183 L39.160938,140.454183 L39.160938,162.272909 L9.1376627,162.272909 C4.33213525,162.272909 0,166.107509 0,170.927524 L0,210.200432 C0,215.020446 4.33213525,219 9.1376627,219 L48.2979377,219 C53.1034651,219 57,215.092923 57,210.272909 C57,205.452894 53.1028021,201.545817 48.2979377,201.545817 L17.4047877,201.545817 L17.4047877,179.727756 L48.2979377,179.727756 C53.1034651,179.727756 56.5650626,175.748203 56.5650626,170.928189 L56.5650626,131.65528 C56.5657257,126.834601 53.1034651,123 48.2986007,123 Z" id="路径"></path>
                <path d="M48.7526046,244 L9.68199107,244 C4.88754754,244 1,247.907023 1,252.72697 C1,257.546918 4.88820903,261.453941 9.68199107,261.453941 L39.6360179,261.453941 L39.6360179,283.272365 L9.68199107,283.272365 C4.88754754,283.272365 1,287.179388 1,291.999335 C1,296.819282 4.88820903,300.726306 9.68199107,300.726306 L39.6360179,300.726306 L39.6360179,322.544729 L9.68199107,322.544729 C4.88754754,322.544729 1,326.451752 1,331.2717 C1,336.091647 4.88754754,340 9.68199107,340 L48.7519431,340 C53.5463866,340 57,336.020501 57,331.200554 L57,252.65516 C57.0006615,247.835213 53.5463866,244 48.7526046,244 Z" id="路径"></path>
                <path d="M105.690656,37 L327.309344,37 C332.108572,37 336,32.9707429 336,28 C336,23.0292571 332.10791,19 327.309344,19 L105.690656,19 C100.891428,19 97,23.0292571 97,28 C97,32.9707429 100.890765,37 105.690656,37 Z" id="路径"></path>
                <path d="M327.309344,58 L105.690656,58 C100.891428,58 97,62.0292571 97,67 C97,71.9707429 100.89209,76 105.690656,76 L327.309344,76 C332.108572,76 336,71.9707429 336,67 C336,62.0292571 332.108572,58 327.309344,58 Z" id="路径"></path>
                <path d="M327.309344,141 L105.690656,141 C100.891428,141 97,145.029257 97,150 C97,154.970743 100.89209,159 105.690656,159 L327.309344,159 C332.108572,159 336,154.970743 336,150 C336,145.029257 332.108572,141 327.309344,141 Z" id="路径"></path>
                <path d="M327.309344,180 L105.690656,180 C100.891428,180 97,184.029257 97,189 C97,193.970743 100.89209,198 105.690656,198 L327.309344,198 C332.108572,198 336,193.970743 336,189 C336,184.029257 332.108572,180 327.309344,180 Z" id="路径"></path>
                <path d="M231.909239,259 L102.090761,259 C99.2794973,259 97,263.029257 97,268 C97,272.970743 99.2798852,277 102.090761,277 L231.909239,277 C234.720503,277 237,272.970743 237,268 C237,263.029257 234.720503,259 231.909239,259 Z" id="路径"></path>
                <path d="M212.636491,302 L101.363509,302 C98.9538548,302 97,306.029257 97,311 C97,315.970743 98.9541873,320 101.363509,320 L212.636491,320 C215.046145,320 217,315.970743 217,311 C217,306.029257 215.046145,302 212.636491,302 Z" id="路径"></path>
            </g>
            <g id="017-update-arrows" transform="translate(311.000000, 288.000000)" fill="#666666" fill-rule="nonzero">
                <path d="M119.474847,10.02912 C117.06666,9.51576 114.697701,11.0398971 114.182043,13.4313257 L110.942599,28.4498514 C100.628728,10.9693943 81.6977364,0 60.9491042,0 C28.9957899,0 3,25.8260114 3,57.5714286 C3,60.0170629 4.99558885,62 7.4576234,62 C9.91930135,62 11.9152468,60.0170629 11.9152468,57.5714286 C11.9152468,30.7101943 33.9116569,8.85714286 60.9491042,8.85714286 C78.5759736,8.85714286 94.6540863,18.2113486 103.358933,33.10552 L88.4975735,29.9413943 C86.0897436,29.4287429 83.7204276,30.9525257 83.2051264,33.3439543 C82.6894685,35.7353829 84.222891,38.0899657 86.6300076,38.6022629 L112.140451,44.0334629 C112.573732,44.1259314 113.013789,44.1525029 113.447783,44.1163657 C114.170631,44.0557829 114.875293,43.8201829 115.495794,43.4212571 C116.488596,42.7831886 117.185411,41.7794971 117.433255,40.6312571 L122.900441,15.2870743 C123.415386,12.896 121.881963,10.5421257 119.474847,10.02912 Z" id="路径"></path>
                <path d="M115.343045,52.0028824 C112.87105,52.0852377 110.932581,54.1722945 111.014276,56.6642648 C111.448551,69.9234688 106.735313,82.5588674 97.7416788,92.2446458 C88.7484031,101.929341 76.5521753,107.504939 63.3996124,107.942723 C62.8513949,107.960783 62.3060439,107.969813 61.7599762,107.969813 C44.5982591,107.969091 28.788812,98.9840548 19.8603907,84.42631 L35.4279772,88.6343771 C37.8172023,89.2798549 40.2734319,87.8512793 40.914094,85.4423867 C41.554756,83.0338552 40.1372733,80.5581392 37.7480481,79.9115778 L12.4282808,73.068141 C11.2809654,72.7585862 10.0580461,72.9204072 9.02969036,73.5185668 C8.00061797,74.1167263 7.24995408,75.1031839 6.94216398,76.2597703 L0.153940949,101.784858 C-0.486721114,104.193389 0.930761615,106.669105 3.3199868,107.315305 C3.70875545,107.420417 4.09859903,107.470986 4.48270962,107.470986 C6.45987587,107.470986 8.26971036,106.140297 8.8061036,104.123676 L12.6217693,89.7775988 C23.2364074,106.626844 41.7127717,117.000722 61.7578263,117 C62.4017132,117 63.0491832,116.989525 63.6955783,116.967853 C79.2395161,116.449881 93.6533376,109.861457 104.28195,98.4155143 C114.910562,86.9695719 120.480882,72.0361713 119.967421,56.3662687 C119.886084,53.8746595 117.814682,51.9143866 115.343045,52.0028824 Z" id="路径"></path>
            </g>
        </g>
    </g>
</svg>