<?xml version="1.0" encoding="UTF-8"?>
<svg width="480px" height="480px" viewBox="0 0 480 480" version="1.1" xmlns="http://www.w3.org/2000/svg" xmlns:xlink="http://www.w3.org/1999/xlink">
    <title>编组</title>
    <g id="页面-1" stroke="none" stroke-width="1" fill="none" fill-rule="evenodd">
        <g id="编组" transform="translate(6.000000, 6.000000)">
            <g id="备注" stroke="#666666" stroke-width="12">
                <rect id="BORDER" x="0" y="0" width="468" height="468" rx="100"></rect>
            </g>
            <g id="speak" transform="translate(77.000000, 108.000000)" fill="#666666" fill-rule="nonzero">
                <path d="M308.847656,100.210245 C305.448486,100.210245 302.695312,102.969967 302.695312,106.368621 L302.695312,128.315533 C302.695312,140.909411 292.457428,151.157333 279.875885,151.157333 L244.807526,151.157333 C243.175232,151.157333 241.612152,151.803962 240.456665,152.958658 L197.942047,195.516883 L197.942047,157.315709 C197.942047,153.913206 195.18695,151.157333 191.789703,151.157333 L103.703522,151.157333 C91.1219789,151.157333 80.8840945,140.911335 80.8840945,128.315533 L80.8840945,35.1566276 C80.8840945,22.5627492 91.1219789,12.3167515 103.703522,12.3167515 L279.875885,12.3167515 C292.457428,12.3167515 302.695312,22.5627492 302.695312,35.1566276 L302.695312,57.1016149 C302.695312,60.5041175 305.448486,63.2599906 308.847656,63.2599906 C312.242981,63.2599906 315,60.5041175 315,57.1016149 L315,35.1566276 C315,15.7712155 299.244232,0 279.875885,0 L103.703522,0 C84.3351744,0 68.579407,15.7712155 68.579407,35.1566276 L68.579407,114.274436 L23.7999574,114.274436 C10.6781614,114.274436 0,124.959218 0,138.097728 L0,194.84716 C0,207.98567 10.6781614,218.670452 23.7999574,218.670452 L42.6165164,218.670452 L73.1090696,249.194826 C74.2876283,250.37454 75.8622434,251 77.4618528,251 C78.2539675,251 79.0556947,250.846041 79.8151243,250.530424 C82.1145632,249.5778 83.6141965,247.333842 83.6141965,244.841624 L83.6141965,218.670452 L131.121826,218.670452 C144.245544,218.670452 154.921784,207.98567 154.921784,194.84716 L154.921784,163.474085 L185.63736,163.474085 L185.63736,210.383587 C185.63736,212.875805 187.136994,215.119763 189.436432,216.072387 C190.195862,216.388004 190.995667,216.541963 191.789703,216.541963 C193.391235,216.541963 194.963928,215.916503 196.140564,214.736789 L247.35498,163.474085 L279.875885,163.474085 C299.244232,163.474085 315,147.702869 315,128.315533 L315,106.368621 C315,102.969967 312.242981,100.210245 308.847656,100.210245 Z M142.619019,194.84716 C142.619019,201.194136 137.462585,206.3537 131.121826,206.3537 L77.4618528,206.3537 C74.0626829,206.3537 71.309509,209.113422 71.309509,212.512076 L71.309509,229.97492 L49.5148313,208.158874 C48.3612668,207.004179 46.7962646,206.3537 45.1639711,206.3537 L23.7999574,206.3537 C17.4611204,206.3537 12.3046875,201.194136 12.3046875,194.84716 L12.3046875,138.097728 C12.3046875,131.752676 17.4611204,126.591187 23.7999574,126.591187 L68.579407,126.591187 L68.579407,128.315533 C68.579407,147.702869 84.3351744,163.474085 103.703522,163.474085 L142.619019,163.474085 L142.619019,194.84716 Z" id="形状"></path>
                <path d="M250.860465,41 L131.139535,41 C127.74936,41 125,43.6868754 125,47 C125,50.315 127.74936,53 131.139535,53 L250.860465,53 C254.250639,53 257,50.315 257,47 C257,43.6868754 254.250639,41 250.860465,41 L250.860465,41 Z" id="路径"></path>
                <path d="M257,80 C257,76.6868749 254.250639,74 250.860465,74 L131.139535,74 C127.74936,74 125,76.6868749 125,80 C125,83.315 127.74936,86 131.139535,86 L250.860465,86 C254.250639,86 257,83.315 257,80 Z" id="路径"></path>
                <path d="M131.113208,107 C127.737571,107 125,109.686875 125,113 C125,116.315 127.737571,119 131.113208,119 L199.886792,119 C203.262429,119 206,116.315 206,113 C206,109.686875 203.262429,107 199.886792,107 L131.113208,107 Z" id="路径"></path>
                <path d="M309,76 C305.69625,76 303,78.6962498 303,82 C303,85.3056246 305.69625,88 309,88 C312.30375,88 315,85.3056246 315,82 C315,78.6962498 312.30375,76 309,76 Z" id="路径"></path>
            </g>
        </g>
    </g>
</svg>