<?xml version="1.0" encoding="UTF-8"?>
<svg width="512px" height="512px" viewBox="0 0 512 512" version="1.1" xmlns="http://www.w3.org/2000/svg" xmlns:xlink="http://www.w3.org/1999/xlink">
    <title>ICON</title>
    <g id="ICON" stroke="none" stroke-width="1" fill="none" fill-rule="evenodd">
        <rect id="BORDER" stroke="#666666" stroke-width="12" x="22" y="22" width="468" height="468" rx="100"></rect>
        <g id="055-ribbon-mark" transform="translate(152.000000, 131.000000)" fill="#666666" fill-rule="nonzero">
            <path d="M138.241,58.764 L64.134,58.764 C61.132,58.764 58.695,56.327 58.695,53.325 C58.695,50.323 61.132,47.886 64.134,47.886 L138.241,47.886 C141.243,47.886 143.68,50.323 143.68,53.325 C143.68,56.327 141.244,58.764 138.241,58.764 Z" id="路径"></path>
            <path d="M138.241,104.816 L64.134,104.816 C61.132,104.816 58.695,102.385 58.695,99.377 C58.695,96.375 61.132,93.938 64.134,93.938 L138.241,93.938 C141.243,93.938 143.68,96.375 143.68,99.377 C143.68,102.385 141.244,104.816 138.241,104.816 Z" id="路径"></path>
            <path d="M138.241,143.129 L64.134,143.129 C61.132,143.129 58.695,140.692 58.695,137.69 C58.695,134.688 61.132,132.251 64.134,132.251 L138.241,132.251 C141.243,132.251 143.68,134.688 143.68,137.69 C143.68,140.692 141.244,143.129 138.241,143.129 Z" id="路径"></path>
            <path d="M208.949,249.397 L104.698,197.204 L0.448,249.397 L0.448,0 L208.944,0 L208.944,249.397 L208.949,249.397 Z M11.332,10.878 L11.332,227.434 L104.704,183.535 L198.076,227.434 L198.076,10.878 L11.332,10.878 Z" id="形状"></path>
        </g>
    </g>
</svg>