<?xml version="1.0" encoding="UTF-8"?>
<svg width="512px" height="512px" viewBox="0 0 512 512" version="1.1" xmlns="http://www.w3.org/2000/svg" xmlns:xlink="http://www.w3.org/1999/xlink">
    <title>ICON</title>
    <g id="ICON" stroke="none" stroke-width="1" fill="none" fill-rule="evenodd">
        <rect id="BORDER" stroke="#666666" stroke-width="10" x="21" y="21" width="470" height="470" rx="60"></rect>
        <g id="026-logout" transform="translate(76.000000, 77.000000)" fill="#666666" fill-rule="nonzero">
            <path d="M202.5,359 L37.5,359 C16.83,359 0,342.21675 0,321.604167 L0,37.3958333 C0,16.78325 16.83,0 37.5,0 L202.5,0 C223.17,0 240,16.78325 240,37.3958333 L240,127.145833 C240,131.274333 236.64,134.625 232.5,134.625 C228.36,134.625 225,131.274333 225,127.145833 L225,37.3958333 C225,25.0252917 214.905,14.9583333 202.5,14.9583333 L37.5,14.9583333 C25.095,14.9583333 15,25.0252917 15,37.3958333 L15,321.604167 C15,333.974708 25.095,344.041667 37.5,344.041667 L202.5,344.041667 C214.905,344.041667 225,333.974708 225,321.604167 L225,231.854167 C225,227.725667 228.36,224.375 232.5,224.375 C236.64,224.375 240,227.725667 240,231.854167 L240,321.604167 C240,342.21675 223.17,359 202.5,359 Z" id="路径"></path>
            <path d="M352.5,187 L127.5,187 C123.36,187 120,183.64 120,179.5 C120,175.36 123.36,172 127.5,172 L352.5,172 C356.64,172 360,175.36 360,179.5 C360,183.64 356.64,187 352.5,187 Z" id="路径"></path>
            <path d="M291.503,246 C289.583192,246 287.663384,245.270384 286.193531,243.826041 C283.268823,240.922466 283.268823,236.202295 286.193531,233.298719 L340.893061,178.994416 L286.208529,124.705003 C283.283822,121.801428 283.283822,117.081257 286.208529,114.177681 C289.133237,111.274106 293.887761,111.274106 296.812469,114.177681 L356.806469,173.7382 C359.731177,176.641776 359.731177,181.361947 356.806469,184.265522 L296.812469,243.826041 C295.342616,245.270384 293.422808,246 291.503,246 Z" id="路径"></path>
        </g>
    </g>
</svg>