<?xml version="1.0" encoding="UTF-8"?>
<svg width="480px" height="480px" viewBox="0 0 480 480" version="1.1" xmlns="http://www.w3.org/2000/svg" xmlns:xlink="http://www.w3.org/1999/xlink">
    <title>子流程</title>
    <g id="页面-1" stroke="none" stroke-width="1" fill="none" fill-rule="evenodd">
        <g id="子流程" transform="translate(6.000000, 6.000000)">
            <rect id="BORDER" stroke="#666666" stroke-width="12" x="0" y="0" width="468" height="468" rx="100"></rect>
            <g id="成本路由" transform="translate(88.000000, 6.000000)" fill="#666666" fill-rule="nonzero">
                <path d="M222.935495,357.521277 L87.5544144,357.521277 C59.25206,357.521277 36.3084685,334.62469 36.3084685,306.380319 C36.3084685,278.135948 59.25206,255.239362 87.5544144,255.239362 L144.57509,255.239362 L113.001468,286.744481 C109.476186,290.205702 108.081943,295.287897 109.348933,300.058442 C110.615923,304.828988 114.349471,308.554887 119.12981,309.819281 C123.910149,311.083675 129.002777,309.692289 132.471104,306.174229 L183.510536,255.239362 L212.992252,255.239362 C256.50159,255.239362 291.773333,220.03988 291.773333,176.619681 C291.773333,133.199481 256.50159,98 212.992252,98 L137.270631,98 C129.667013,98 123.503063,104.151322 123.503063,111.739362 C123.503063,119.327402 129.667013,125.478723 137.270631,125.478723 L212.992252,125.478723 C241.294607,125.478723 264.238198,148.37531 264.238198,176.619681 C264.238198,204.864052 241.294607,227.760638 212.992252,227.760638 L183.510536,227.760638 L132.471104,176.825771 C127.094608,171.460646 118.377964,171.460646 113.001468,176.825771 C107.625329,182.191252 107.625329,190.890038 113.001468,196.255519 L144.57509,227.760638 L87.5544144,227.760638 C44.0450766,227.760638 8.77333333,262.96012 8.77333333,306.380319 C8.77333333,349.800519 44.0450766,385 87.5544144,385 L222.935495,385 C230.539113,385 236.703063,378.848678 236.703063,371.260638 C236.703063,363.672598 230.539113,357.521277 222.935495,357.521277 L222.935495,357.521277 Z" id="路径"></path>
                <text id="？" font-family="PingFangSC-Medium, PingFang SC" font-size="200" font-weight="400">
                    <tspan x="0.773333333" y="212">？</tspan>
                </text>
                <path d="M263.773333,371 C263.773333,378.731986 270.041347,385 277.773333,385 C285.50532,385 291.773333,378.731986 291.773333,371 C291.773333,363.268014 285.50532,357 277.773333,357 C270.041347,357 263.773333,363.268014 263.773333,371 L263.773333,371 Z" id="路径"></path>
            </g>
        </g>
    </g>
</svg>